<svg width="146" height="145" viewBox="0 0 146 145" fill="none" xmlns="http://www.w3.org/2000/svg">
<path d="M73.2622 0.668468C90.6253 0.708651 107.393 6.89777 120.536 18.1173C133.678 29.3368 142.328 44.8466 144.922 61.8436C147.517 78.8405 143.884 96.2035 134.68 110.794C125.477 125.385 111.311 136.242 94.7412 141.401C78.1717 146.561 60.2923 145.684 44.3342 138.928C28.3762 132.172 15.3922 119.984 7.72897 104.566C0.0657025 89.1471 -1.77135 71.5158 2.5498 54.8581C6.87096 38.2004 17.0653 23.6152 31.2903 13.7385L50.1685 40.4227C42.3819 45.8291 36.8016 53.8129 34.4363 62.9311C32.0709 72.0494 33.0765 81.7006 37.2713 90.1405C41.4661 98.5804 48.5734 105.252 57.3086 108.95C66.0439 112.648 75.8309 113.128 84.9009 110.304C93.9709 107.48 101.726 101.537 106.763 93.5501C111.801 85.5632 113.79 76.0589 112.37 66.7549C110.95 57.4509 106.215 48.961 99.0207 42.8196C91.8266 36.6781 82.6479 33.2903 73.1435 33.2683L73.2622 0.668468Z" fill="#1D7258"/>
<path d="M60.6024 73.982H60.5274C59.5024 75.282 58.0524 76.057 56.2274 76.057C53.0274 76.057 51.0524 73.557 51.0524 70.382C51.0524 66.957 53.3024 63.807 56.9774 63.807C60.4774 63.807 62.7024 66.857 62.7024 71.632C62.7024 77.857 59.5524 82.182 54.7524 82.932C53.8774 83.082 53.0774 83.132 52.5274 83.107V81.382C53.0524 81.432 53.6524 81.357 54.4524 81.257C57.6024 80.807 59.9774 78.257 60.6024 73.982ZM56.8024 65.407C54.6274 65.407 53.1524 67.457 53.1524 70.257C53.1524 72.782 54.5774 74.482 56.7274 74.482C58.7524 74.482 60.6024 72.932 60.6024 71.432C60.6024 67.832 59.2774 65.407 56.8024 65.407ZM71.4464 83.132C68.0464 83.132 65.6714 79.782 65.6714 73.532C65.6714 66.982 68.2214 63.807 71.7214 63.807C75.2714 63.807 77.4464 67.157 77.4464 73.282C77.4464 79.782 75.1714 83.132 71.4464 83.132ZM71.5214 81.432C74.2964 81.432 75.3464 77.832 75.3464 73.382C75.3464 68.707 74.2214 65.482 71.5964 65.482C69.3714 65.482 67.7964 68.457 67.7964 73.382C67.7964 78.307 69.1714 81.432 71.5214 81.432Z" fill="#1D7258"/>
<path d="M85.0378 70.2424C86.7548 70.2424 87.7748 71.6364 87.7748 73.9484C87.7748 76.6004 86.4658 77.8754 84.9528 77.8754C83.4908 77.8754 82.1988 76.6344 82.1988 74.1184C82.1988 71.5684 83.5248 70.2424 85.0378 70.2424ZM84.9868 71.1264C83.8308 71.1264 83.3548 72.6564 83.3548 74.1184C83.3548 75.6654 83.9158 76.9914 84.9868 76.9914C86.1428 76.9914 86.6188 75.6484 86.6188 74.0334C86.6188 72.5034 86.1938 71.1264 84.9868 71.1264ZM92.8068 75.4104C94.5238 75.4104 95.5438 76.8214 95.5438 79.1504C95.5438 81.7854 94.2348 83.0604 92.7218 83.0604C91.2598 83.0604 89.9678 81.8194 89.9678 79.3034C89.9678 76.7534 91.2938 75.4104 92.8068 75.4104ZM92.7728 76.2944C91.6338 76.2944 91.1238 77.7734 91.1238 79.2354C91.1238 80.8504 91.6848 82.1594 92.7558 82.1594C93.9288 82.1594 94.3878 80.8334 94.3878 79.2014C94.3878 77.6884 93.9798 76.2944 92.7728 76.2944ZM92.9768 70.2084L85.7008 83.1624H84.7318L92.0078 70.2084H92.9768Z" fill="#1D7258"/>
</svg>
